<svg xmlns="http://www.w3.org/2000/svg" version="1.1" xmlns:xlink="http://www.w3.org/1999/xlink" xmlns:svgjs="http://svgjs.dev/svgjs" width="2000" height="409" viewBox="0 0 2000 409"><g transform="matrix(1,0,0,1,-1.2121212121212466,-0.7261031012528747)"><svg viewBox="0 0 396 81" data-background-color="#ffffff" preserveAspectRatio="xMidYMid meet" height="409" width="2000" xmlns="http://www.w3.org/2000/svg" xmlns:xlink="http://www.w3.org/1999/xlink"><g id="tight-bounds" transform="matrix(1,0,0,1,0.2400000000000091,0.1438003696857777)"><svg viewBox="0 0 395.52 80.71239926062846" height="80.71239926062846" width="395.52"><g><svg viewBox="0 0 395.52 80.71239926062846" height="80.71239926062846" width="395.52"><g><svg viewBox="0 0 395.52 80.71239926062846" height="80.71239926062846" width="395.52"><g><svg viewBox="0 0 395.52 80.71239926062846" height="80.71239926062846" width="395.52"><g><svg viewBox="0 0 395.52 80.71239926062846" height="80.71239926062846" width="395.52"><g><svg viewBox="0 0 395.52 80.71239926062846" height="80.71239926062846" width="395.52"><g transform="matrix(1,0,0,1,0,0)"><svg width="395.52" viewBox="2.27 -40.43 201.53 40.43" height="80.71239926062846" data-palette-color="#313bac"><g class="undefined-text-0" data-fill-palette-color="primary" id="text-0"><path d="M15.94-17.38L15.94-19.14 26.15-19.14Q28.66-19.14 30.41-20.84 32.15-22.53 32.15-25.63L32.15-25.63Q32.15-27.95 30.32-29.8 28.49-31.64 26.15-31.64L26.15-31.64 11.06-31.64 11.06 0 9.3 0 9.3-33.4 26.15-33.4Q29.22-33.4 31.57-31.03 33.91-28.66 33.91-25.63L33.91-25.63Q33.91-21.9 31.64-19.64 29.37-17.38 26.15-17.38L26.15-17.38 15.94-17.38ZM15.94-13.87L15.94-15.63 26.15-15.63Q28.69-15.63 30.85-16.86 33.01-18.09 34.34-20.41 35.67-22.73 35.67-25.63L35.67-25.63Q35.67-29.39 32.8-32.28 29.93-35.16 26.15-35.16L26.15-35.16 7.54-35.16 7.54 0 5.79 0 5.79-36.91 26.15-36.91Q29.1-36.91 31.71-35.35 34.33-33.79 35.88-31.18 37.43-28.56 37.43-25.63L37.43-25.63Q37.43-22.31 35.86-19.59 34.3-16.87 31.73-15.37 29.15-13.87 26.15-13.87L26.15-13.87 15.94-13.87ZM15.94-10.35L15.94-12.11 26.15-12.11Q28.76-12.11 31.15-13.15 33.54-14.18 35.31-15.95 37.08-17.72 38.13-20.25 39.18-22.78 39.18-25.63L39.18-25.63Q39.18-29.05 37.4-32.07 35.62-35.08 32.6-36.88 29.59-38.67 26.15-38.67L26.15-38.67 4.03-38.67 4.03 0 2.27 0 2.27-40.43 26.15-40.43Q30.05-40.43 33.47-38.39 36.89-36.35 38.92-32.93 40.94-29.52 40.94-25.63L40.94-25.63Q40.94-22.17 39.75-19.25 38.55-16.33 36.52-14.4 34.5-12.48 31.81-11.41 29.13-10.35 26.15-10.35L26.15-10.35 15.94-10.35ZM14.58-28.13L14.58 0 12.82 0 12.82-29.88 26.15-29.88Q27.88-29.88 29.14-28.61 30.4-27.34 30.4-25.63L30.4-25.63Q30.4-20.9 26.15-20.9L26.15-20.9 15.94-20.9 15.94-22.66 26.15-22.66Q27.32-22.66 27.98-23.32 28.64-23.97 28.64-25.63L28.64-25.63Q28.64-26.71 27.92-27.42 27.2-28.13 26.15-28.13L26.15-28.13 14.58-28.13ZM69.68-11.87L62.25-11.87 62.96-13.62 68.97-13.62 69.68-11.87ZM71.09-8.35L60.89-8.35 61.57-10.11 70.33-10.11 71.09-8.35ZM72.46-4.83L59.52-4.83 60.2-6.59 71.73-6.59 72.46-4.83ZM60.28-38.06L45.24 0 43.33 0 59.32-40.43 61.23-40.43 77.19 0 75.31 0 60.28-38.06ZM47.12 0L60.5-33.89 61.5-31.64 49 0 47.12 0ZM50.9 0L62.45-29.25 63.38-26.83 52.81 0 50.9 0ZM54.69 0L64.3-24.41 65.23-21.95 56.56 0 54.69 0ZM72.56-40.43L88.55 0 86.64 0 70.68-40.43 72.56-40.43ZM66.89-40.43L68.77-40.43 84.76 0 82.88 0 66.89-40.43ZM63.11-40.43L64.99-40.43 80.98 0 79.07 0 63.11-40.43ZM104.9-18.36L104.9-20.12 115.5-20.12Q117.91-20.12 119.59-21.68 121.26-23.24 121.26-26.12L121.26-26.12Q121.26-28.25 119.5-29.94 117.74-31.64 115.5-31.64L115.5-31.64 100.41-31.64 100.41 0 98.65 0 98.65-33.4 115.5-33.4Q118.48-33.4 120.75-31.19 123.02-28.98 123.02-26.12L123.02-26.12Q123.02-22.61 120.82-20.48 118.62-18.36 115.5-18.36L115.5-18.36 104.9-18.36ZM104.9-14.84L104.9-16.6 115.5-16.6Q119.31-16.6 122.04-19.27 124.78-21.95 124.78-26.12L124.78-26.12Q124.78-29.71 121.98-32.43 119.18-35.16 115.5-35.16L115.5-35.16 96.89-35.16 96.89 0 95.14 0 95.14-36.91 115.5-36.91Q118.4-36.91 120.95-35.42 123.51-33.94 125.02-31.43 126.53-28.93 126.53-26.12L126.53-26.12Q126.53-21.31 123.27-18.08 120.01-14.84 115.5-14.84L115.5-14.84 104.9-14.84ZM104.9-11.33L104.9-13.09 115.5-13.09Q118.92-13.09 121.85-14.77 124.78-16.46 126.53-19.47 128.29-22.49 128.29-26.12L128.29-26.12Q128.29-29.42 126.55-32.31 124.8-35.21 121.85-36.94 118.89-38.67 115.5-38.67L115.5-38.67 93.38-38.67 93.38 0 91.62 0 91.62-40.43 115.5-40.43Q119.33-40.43 122.7-38.46 126.07-36.5 128.06-33.19 130.05-29.88 130.05-26.12L130.05-26.12Q130.05-21.78 128.18-18.48 126.31-15.19 123.12-13.33L123.12-13.33 127.66 0 125.8 0 121.45-12.5Q120.48-12.11 119.97-11.96L119.97-11.96 124.04 0 122.19 0 118.21-11.55Q117.99-11.5 116.65-11.38L116.65-11.38 120.43 0 118.57 0 114.84-11.33 113.25-11.33 116.82 0 114.96 0 111.37-11.33 104.9-11.33ZM103.93-28.13L103.93 0 102.17 0 102.17-29.88 115.5-29.88Q117.13-29.88 118.32-28.77 119.5-27.66 119.5-26.12L119.5-26.12Q119.5-21.88 115.5-21.88L115.5-21.88 104.9-21.88 104.9-23.63 115.5-23.63Q116.55-23.63 117.15-24.18 117.74-24.73 117.74-26.12L117.74-26.12Q117.74-26.98 117.1-27.55 116.45-28.13 115.5-28.13L115.5-28.13 103.93-28.13ZM159.39-38.67L133.02-38.67 133.02-40.43 159.39-40.43 159.39-38.67ZM159.39-35.16L133.02-35.16 133.02-36.91 159.39-36.91 159.39-35.16ZM140.06-31.64L133.02-31.64 133.02-33.4 159.39-33.4 159.39-31.64 152.36-31.64 152.36 0 150.6 0 150.6-31.64 148.85-31.64 148.85 0 147.09 0 147.09-31.64 145.33-31.64 145.33 0 143.57 0 143.57-31.64 141.81-31.64 141.81 0 140.06 0 140.06-31.64ZM202.04 0L202.04-40.43 203.8-40.43 203.8 0 202.04 0ZM163.37 0L163.37-40.43 165.13-40.43 165.13 0 163.37 0ZM198.53 0L198.53-40.43 200.28-40.43 200.28 0 198.53 0ZM195.01 0L195.01-40.43 196.77-40.43 196.77 0 195.01 0ZM191.49-24.63L191.49-40.43 193.25-40.43 193.25 0 191.49 0 191.49-15.84 175.67-15.84 175.67 0 173.92 0 173.92-40.43 175.67-40.43 175.67-24.63 191.49-24.63ZM170.4 0L170.4-40.43 172.16-40.43 172.16 0 170.4 0ZM166.88 0L166.88-40.43 168.64-40.43 168.64 0 166.88 0ZM175.67-17.6L191.49-17.6 191.49-19.36 175.67-19.36 175.67-17.6ZM175.67-21.12L191.49-21.12 191.49-22.88 175.67-22.88 175.67-21.12Z" fill="#313bac" data-fill-palette-color="primary"></path></g></svg></g></svg></g></svg></g></svg></g><g></g></svg></g></svg></g><defs></defs></svg><rect width="395.52" height="80.71239926062846" fill="none" stroke="none" visibility="hidden"></rect></g></svg></g></svg>